<?xml version="1.0" encoding="UTF-8" standalone="no"?>
<!DOCTYPE svg PUBLIC "-//W3C//DTD SVG 1.1//EN" "http://www.w3.org/Graphics/SVG/1.1/DTD/svg11.dtd">
<svg width="100%" height="100%" viewBox="0 0 133 83" version="1.1" xmlns="http://www.w3.org/2000/svg" xmlns:xlink="http://www.w3.org/1999/xlink" xml:space="preserve" style="fill-rule:evenodd;clip-rule:evenodd;stroke-linejoin:round;stroke-miterlimit:1.41421;">
    <g transform="matrix(1,0,0,1,-49.5444,-21.8144)">
        <path d="M167.87,32.786C166.598,36.314 165.391,39.661 164.174,43.033L171.569,43.033C170.343,39.637 169.14,36.305 167.87,32.786M136.329,39.406C139.15,39.406 141.919,39.538 144.67,39.368C147.423,39.199 149.248,36.405 148.573,33.742C148.071,31.759 146.359,30.505 144.088,30.49C141.663,30.475 139.238,30.486 136.812,30.489C136.652,30.489 136.492,30.521 136.329,30.538L136.329,39.406ZM136.318,44.422L136.318,57.029C135.56,57.029 134.843,57.029 134.127,57.029C133.233,57.03 132.338,57.018 131.444,57.036C131.089,57.043 130.923,56.926 130.963,56.561C130.974,56.455 130.964,56.348 130.964,56.242C130.964,46.211 130.964,36.181 130.964,26.15L130.964,25.433C131.219,25.419 131.442,25.395 131.666,25.395C135.669,25.393 139.673,25.404 143.677,25.39C146.651,25.38 149.315,26.174 151.415,28.379C154.944,32.084 154.956,37.813 151.472,41.562C151.371,41.671 151.267,41.776 151.128,41.922C153.183,43.121 153.646,45.083 153.685,47.225C153.715,48.886 153.647,50.549 153.712,52.207C153.742,52.99 153.981,53.765 154.125,54.543C154.183,54.538 154.242,54.533 154.3,54.528C155.19,52.12 156.084,49.714 156.97,47.305C159.585,40.192 162.2,33.08 164.801,25.963C164.955,25.541 165.151,25.371 165.621,25.381C167.154,25.415 168.688,25.41 170.221,25.384C170.646,25.377 170.852,25.493 171.004,25.912C174.696,36.106 178.404,46.294 182.108,56.483C182.158,56.62 182.192,56.763 182.251,56.963C182.063,56.988 181.906,57.026 181.749,57.027C180.237,57.031 178.725,57.016 177.213,57.038C176.812,57.044 176.613,56.927 176.474,56.535C175.534,53.897 174.556,51.273 173.622,48.633C173.457,48.168 173.27,47.974 172.735,47.978C169.308,48.008 165.88,47.994 162.412,47.994C161.632,50.137 160.856,52.268 160.081,54.399C159.813,55.137 159.574,55.888 159.262,56.608C159.18,56.797 158.88,57.01 158.678,57.012C155.761,57.038 152.844,57.039 149.927,57.011C149.699,57.008 149.381,56.787 149.261,56.579C148.523,55.302 148.423,53.874 148.398,52.444C148.374,51.124 148.339,49.801 148.404,48.484C148.532,45.874 146.968,44.564 144.641,44.453C141.902,44.322 139.152,44.422 136.318,44.422" style="fill:rgb(0,173,242);fill-rule:nonzero;"/>
        <path d="M69.127,65.369L69.127,61.022C69.255,61.003 69.356,60.975 69.456,60.975C72.882,60.989 76.32,60.834 79.731,61.064C84.387,61.378 87.971,63.604 90.082,67.876C90.982,69.698 90.98,71.702 90.975,73.69C90.958,80.036 90.897,86.383 90.973,92.728C91.022,96.78 94.522,100.204 98.556,100.38C102.776,100.563 106.413,97.535 106.937,93.391C106.993,92.949 107.025,92.501 107.025,92.056C107.03,83.473 107.029,74.891 107.029,66.308C107.029,65.334 107.03,65.326 106.046,65.184C98.304,64.068 93.582,59.527 91.355,52.189C90.773,50.272 90.437,48.303 90.417,46.236L94.736,46.236C94.873,47.222 94.962,48.234 95.16,49.223C95.91,52.97 97.488,56.244 100.685,58.538C102.955,60.168 105.549,60.833 108.3,60.95C111.373,61.081 114.335,60.644 117.018,59.021C120.27,57.054 122.064,54.034 122.992,50.455C123.346,49.085 123.508,47.664 123.765,46.221L128.001,46.221C128.037,47.938 127.749,49.584 127.346,51.21C126.347,55.232 124.503,58.761 121.269,61.459C118.602,63.683 115.481,64.824 112.07,65.207C111.499,65.271 111.384,65.448 111.385,65.978C111.4,74.731 111.39,83.484 111.399,92.237C111.405,97.35 108.457,101.881 103.833,103.815C99.145,105.776 93.797,104.763 90.195,101.155C87.752,98.707 86.549,95.709 86.547,92.243C86.543,86.344 86.559,80.445 86.534,74.546C86.53,73.423 86.494,72.277 86.273,71.183C85.613,67.912 83.374,65.924 79.983,65.495C79.226,65.399 78.456,65.378 77.692,65.374C74.86,65.361 72.029,65.369 69.127,65.369" style="fill-rule:nonzero;"/>
        <path d="M87.847,25.394L87.847,56.994L82.605,56.994L82.605,38.42C82.56,38.411 82.515,38.402 82.47,38.393C82.148,39.255 81.822,40.116 81.504,40.98C79.605,46.139 77.703,51.298 75.818,56.462C75.665,56.882 75.476,57.061 75.005,57.042C73.984,57.001 72.96,56.999 71.94,57.042C71.434,57.063 71.198,56.909 71.018,56.425C68.859,50.614 66.676,44.812 64.498,39.007C64.41,38.772 64.32,38.537 64.123,38.312L64.123,55C62.436,53.857 60.731,53.155 58.787,53.056L58.787,25.427C58.978,25.416 59.181,25.396 59.384,25.395C60.917,25.393 62.451,25.415 63.984,25.382C64.465,25.371 64.694,25.514 64.863,25.971C67.366,32.741 69.887,39.505 72.404,46.27C72.653,46.94 72.904,47.61 73.206,48.42C73.872,46.681 74.484,45.087 75.093,43.492C77.318,37.66 79.546,31.829 81.761,25.992C81.925,25.559 82.129,25.37 82.627,25.38C84.347,25.416 86.069,25.394 87.847,25.394" style="fill:rgb(0,173,242);fill-rule:nonzero;"/>
        <path d="M64.901,63.172C64.897,59.599 62.017,56.719 58.452,56.723C54.906,56.726 51.973,59.652 51.978,63.18C51.983,66.753 54.899,69.618 58.525,69.611C62.055,69.606 64.905,66.728 64.901,63.172M49.544,63.173C49.545,58.242 53.563,54.238 58.495,54.254C63.379,54.27 67.403,58.306 67.394,63.181C67.385,68.064 63.369,72.089 58.488,72.106C53.567,72.123 49.542,68.103 49.544,63.173" style="fill-rule:nonzero;"/>
        <path d="M127.981,44.422L123.642,44.422L123.642,43.646C123.642,39.987 123.662,36.327 123.626,32.668C123.618,31.871 123.491,31.055 123.281,30.285C122.899,28.883 122.36,28.406 120.973,28.001L120.973,23.646C121.399,23.69 121.775,23.69 122.132,23.771C125.207,24.468 127.377,26.964 127.857,30.359C127.95,31.01 128.02,31.67 128.023,32.326C128.041,36.262 128.037,40.198 128.037,44.133C128.037,44.214 128.007,44.294 127.981,44.422" style="fill-rule:nonzero;"/>
        <path d="M97.461,23.716L97.461,28.001C95.657,28.358 95.144,29.767 94.907,31.354C94.809,32.003 94.792,32.669 94.789,33.327C94.779,36.753 94.784,40.18 94.784,43.607L94.784,44.407L90.449,44.407C90.438,44.176 90.419,43.969 90.419,43.762C90.417,39.931 90.397,36.099 90.424,32.268C90.443,29.674 91.101,27.303 93.064,25.45C94.253,24.327 96.081,23.59 97.461,23.716" style="fill-rule:nonzero;"/>
        <path d="M112.798,25.774C112.798,24.923 112.789,24.072 112.8,23.221C112.815,22.172 113.602,21.592 114.61,21.902C115.95,22.314 117.284,22.743 118.616,23.179C119.394,23.433 119.673,23.827 119.682,24.636C119.689,25.296 119.684,25.956 119.683,26.615C119.682,27.256 119.397,27.708 118.794,27.953C117.436,28.505 116.087,29.076 114.722,29.609C113.642,30.03 112.807,29.432 112.799,28.264C112.794,27.434 112.798,26.604 112.798,25.774" style="fill-rule:nonzero;"/>
        <path d="M105.645,25.827C105.645,26.678 105.662,27.53 105.641,28.381C105.616,29.42 104.767,30.012 103.789,29.637C102.382,29.097 100.992,28.509 99.599,27.931C99.053,27.705 98.772,27.281 98.768,26.688C98.762,25.943 98.754,25.198 98.77,24.454C98.784,23.833 99.109,23.405 99.695,23.214C101.088,22.76 102.483,22.313 103.885,21.889C104.831,21.604 105.612,22.165 105.639,23.146C105.664,24.039 105.645,24.933 105.645,25.827" style="fill-rule:nonzero;"/>
        <path d="M63.897,63.189C63.896,66.206 61.481,68.64 58.477,68.652C55.472,68.665 52.987,66.178 52.994,63.163C53.001,60.168 55.438,57.725 58.439,57.706C61.464,57.686 63.898,60.132 63.897,63.189" style="fill-rule:nonzero;"/>
        <path d="M133.743,63.677C133.716,63.245 133.689,62.659 133.696,62.173L133.682,62.173C133.601,62.659 133.48,63.219 133.392,63.569L132.995,65.194L132.374,65.194L131.997,63.596C131.909,63.232 131.788,62.666 131.713,62.173L131.7,62.173C131.687,62.666 131.653,63.239 131.633,63.69L131.552,65.268L130.796,65.268L131.12,60.724L132.057,60.724L132.421,62.369C132.543,62.942 132.658,63.448 132.738,63.96L132.759,63.96C132.826,63.454 132.927,62.942 133.042,62.369L133.406,60.724L134.337,60.724L134.613,65.268L133.824,65.268L133.743,63.677Z" style="fill-rule:nonzero;"/>
        <path d="M135.846,61.971L136.17,63.69C136.21,63.886 136.237,64.061 136.264,64.243L136.278,64.243C136.304,64.075 136.332,63.886 136.358,63.704L136.628,61.971L137.498,61.971L136.824,64.52C136.662,65.14 136.446,65.781 136.089,66.199C135.806,66.529 135.475,66.684 135.34,66.718L135.071,65.956C135.219,65.902 135.374,65.808 135.509,65.686C135.63,65.572 135.725,65.43 135.785,65.289C135.812,65.235 135.833,65.194 135.833,65.147C135.833,65.106 135.819,65.066 135.806,65.026L134.895,61.971L135.846,61.971Z" style="fill-rule:nonzero;"/>
        <path d="M139.851,62.773L140.013,62.773C140.397,62.773 140.613,62.463 140.613,62.065C140.613,61.674 140.458,61.404 140.067,61.391C139.986,61.391 139.898,61.398 139.851,61.418L139.851,62.773ZM138.968,60.791C139.244,60.737 139.595,60.703 139.932,60.703C140.417,60.703 140.856,60.777 141.146,61.04C141.422,61.29 141.51,61.593 141.51,61.984C141.51,62.47 141.267,62.908 140.809,63.117L140.809,63.13C141.119,63.259 141.274,63.542 141.361,64.034C141.449,64.54 141.57,65.099 141.651,65.268L140.728,65.268C140.667,65.14 140.566,64.681 140.498,64.176C140.417,63.616 140.276,63.454 139.986,63.454L139.851,63.454L139.851,65.268L138.968,65.268L138.968,60.791Z" style="fill-rule:nonzero;"/>
        <path d="M143.56,63.313C143.56,62.888 143.452,62.558 143.189,62.558C142.906,62.558 142.785,62.982 142.778,63.313L143.56,63.313ZM142.778,63.933C142.785,64.446 143.088,64.635 143.472,64.635C143.722,64.635 143.937,64.581 144.099,64.527L144.214,65.16C143.991,65.248 143.648,65.309 143.317,65.309C142.414,65.309 141.921,64.715 141.921,63.684C141.921,62.571 142.501,61.91 143.243,61.91C143.951,61.91 144.362,62.47 144.362,63.475C144.362,63.711 144.349,63.839 144.335,63.933L142.778,63.933Z" style="fill-rule:nonzero;"/>
        <path d="M144.834,64.472C144.962,64.553 145.205,64.647 145.427,64.647C145.657,64.647 145.785,64.546 145.785,64.351C145.785,64.182 145.69,64.074 145.4,63.906C144.868,63.602 144.733,63.258 144.733,62.955C144.733,62.361 145.157,61.91 145.818,61.91C146.095,61.91 146.311,61.977 146.486,62.065L146.331,62.712C146.203,62.638 146.048,62.577 145.872,62.577C145.643,62.577 145.542,62.712 145.542,62.86C145.542,63.002 145.616,63.09 145.926,63.272C146.412,63.548 146.594,63.892 146.594,64.27C146.594,64.944 146.108,65.308 145.427,65.308C145.151,65.308 144.827,65.234 144.679,65.119L144.834,64.472Z" style="fill-rule:nonzero;"/>
        <path d="M147.807,63.609C147.807,64.175 147.895,64.647 148.212,64.647C148.501,64.647 148.576,64.094 148.576,63.609C148.576,63.157 148.501,62.584 148.198,62.584C147.874,62.584 147.807,63.157 147.807,63.609M149.452,63.609C149.452,64.984 148.69,65.322 148.191,65.322C147.402,65.322 146.93,64.701 146.93,63.629C146.93,62.442 147.551,61.91 148.205,61.91C148.987,61.91 149.452,62.564 149.452,63.609" style="fill-rule:nonzero;"/>
        <path d="M152.365,64.263C152.365,64.614 152.378,64.957 152.392,65.268L151.63,65.268L151.583,64.917L151.569,64.917C151.414,65.139 151.145,65.322 150.801,65.322C150.174,65.322 149.924,64.856 149.924,63.966L149.924,61.97L150.807,61.97L150.807,63.872C150.807,64.303 150.895,64.58 151.138,64.58C151.293,64.58 151.387,64.465 151.428,64.357C151.461,64.29 151.482,64.189 151.482,64.074L151.482,61.97L152.365,61.97L152.365,64.263Z" style="fill-rule:nonzero;"/>
        <path d="M152.999,62.962C152.999,62.638 152.986,62.281 152.972,61.971L153.734,61.971L153.781,62.449L153.808,62.449C153.95,62.099 154.219,61.91 154.456,61.91C154.55,61.91 154.597,61.917 154.644,61.93L154.644,62.8C154.59,62.793 154.53,62.793 154.456,62.793C154.267,62.793 154.017,62.921 153.923,63.259C153.896,63.333 153.882,63.454 153.882,63.589L153.882,65.268L152.999,65.268L152.999,62.962Z" style="fill-rule:nonzero;"/>
        <path d="M156.781,65.214C156.693,65.255 156.471,65.308 156.221,65.308C155.385,65.308 154.839,64.728 154.839,63.656C154.839,62.638 155.439,61.93 156.35,61.93C156.559,61.93 156.747,61.977 156.835,62.018L156.72,62.712C156.646,62.685 156.538,62.652 156.39,62.652C155.965,62.652 155.716,63.056 155.716,63.63C155.716,64.223 155.965,64.587 156.376,64.587C156.505,64.587 156.613,64.567 156.707,64.519L156.781,65.214Z" style="fill-rule:nonzero;"/>
        <path d="M158.656,63.313C158.656,62.888 158.548,62.558 158.285,62.558C158.002,62.558 157.881,62.982 157.874,63.313L158.656,63.313ZM157.874,63.933C157.881,64.446 158.184,64.635 158.568,64.635C158.818,64.635 159.033,64.581 159.195,64.527L159.31,65.16C159.087,65.248 158.744,65.309 158.413,65.309C157.51,65.309 157.017,64.715 157.017,63.684C157.017,62.571 157.597,61.91 158.339,61.91C159.047,61.91 159.458,62.47 159.458,63.475C159.458,63.711 159.445,63.839 159.431,63.933L157.874,63.933Z" style="fill-rule:nonzero;"/>
        <path d="M162.566,63.542L162.418,62.591C162.37,62.315 162.31,61.856 162.269,61.56L162.249,61.56C162.202,61.863 162.135,62.328 162.087,62.591L161.919,63.542L162.566,63.542ZM161.831,64.229L161.629,65.268L160.773,65.268L161.757,60.723L162.816,60.723L163.699,65.268L162.843,65.268L162.647,64.229L161.831,64.229Z" style="fill-rule:nonzero;"/>
        <path d="M164.144,64.472C164.272,64.553 164.515,64.647 164.737,64.647C164.967,64.647 165.095,64.546 165.095,64.351C165.095,64.182 165,64.074 164.71,63.906C164.178,63.602 164.043,63.258 164.043,62.955C164.043,62.361 164.468,61.91 165.128,61.91C165.405,61.91 165.621,61.977 165.796,62.065L165.641,62.712C165.513,62.638 165.358,62.577 165.182,62.577C164.953,62.577 164.852,62.712 164.852,62.86C164.852,63.002 164.926,63.09 165.236,63.272C165.722,63.548 165.904,63.892 165.904,64.27C165.904,64.944 165.418,65.308 164.737,65.308C164.461,65.308 164.137,65.234 163.989,65.119L164.144,64.472Z" style="fill-rule:nonzero;"/>
        <path d="M166.328,64.472C166.456,64.553 166.699,64.647 166.922,64.647C167.151,64.647 167.279,64.546 167.279,64.351C167.279,64.182 167.184,64.074 166.894,63.906C166.362,63.602 166.227,63.258 166.227,62.955C166.227,62.361 166.652,61.91 167.313,61.91C167.589,61.91 167.805,61.977 167.98,62.065L167.825,62.712C167.697,62.638 167.542,62.577 167.366,62.577C167.137,62.577 167.036,62.712 167.036,62.86C167.036,63.002 167.11,63.09 167.42,63.272C167.906,63.548 168.088,63.892 168.088,64.27C168.088,64.944 167.602,65.308 166.922,65.308C166.645,65.308 166.321,65.234 166.173,65.119L166.328,64.472Z" style="fill-rule:nonzero;"/>
        <path d="M168.54,61.971L169.423,61.971L169.423,65.268L168.54,65.268L168.54,61.971ZM169.423,61.101C169.43,61.384 169.227,61.58 168.958,61.58C168.715,61.58 168.513,61.384 168.52,61.101C168.513,60.804 168.729,60.615 168.971,60.615C169.227,60.615 169.423,60.804 169.423,61.101" style="fill-rule:nonzero;"/>
        <path d="M170.016,64.472C170.144,64.553 170.387,64.647 170.61,64.647C170.839,64.647 170.967,64.546 170.967,64.351C170.967,64.182 170.872,64.074 170.582,63.906C170.05,63.602 169.915,63.258 169.915,62.955C169.915,62.361 170.34,61.91 171,61.91C171.277,61.91 171.493,61.977 171.668,62.065L171.513,62.712C171.385,62.638 171.23,62.577 171.054,62.577C170.825,62.577 170.724,62.712 170.724,62.86C170.724,63.002 170.798,63.09 171.108,63.272C171.594,63.548 171.776,63.892 171.776,64.27C171.776,64.944 171.29,65.308 170.61,65.308C170.333,65.308 170.009,65.234 169.861,65.119L170.016,64.472Z" style="fill-rule:nonzero;"/>
        <path d="M173.266,61.115L173.266,61.971L173.913,61.971L173.913,62.598L173.266,62.598L173.266,64.102C173.266,64.486 173.428,64.581 173.596,64.581C173.684,64.581 173.751,64.574 173.832,64.561L173.839,65.248C173.718,65.282 173.529,65.309 173.3,65.309C173.043,65.309 172.821,65.248 172.659,65.1C172.484,64.925 172.382,64.675 172.382,64.156L172.382,62.598L171.992,62.598L171.992,61.971L172.382,61.971L172.382,61.391L173.266,61.115Z" style="fill-rule:nonzero;"/>
        <path d="M175.68,63.663C175.39,63.67 174.979,63.771 174.979,64.229C174.979,64.553 175.161,64.674 175.296,64.674C175.444,64.674 175.599,64.587 175.66,64.391C175.673,64.344 175.68,64.297 175.68,64.236L175.68,63.663ZM176.55,64.513C176.55,64.776 176.563,65.045 176.597,65.268L175.808,65.268L175.761,64.944L175.741,64.944C175.565,65.194 175.302,65.322 175.013,65.322C174.513,65.322 174.143,64.903 174.143,64.324C174.143,63.454 174.905,63.103 175.653,63.097L175.653,63.022C175.653,62.759 175.505,62.571 175.188,62.571C174.925,62.571 174.716,62.645 174.513,62.766L174.352,62.166C174.541,62.065 174.918,61.917 175.383,61.917C176.388,61.917 176.55,62.618 176.55,63.292L176.55,64.513Z" style="fill-rule:nonzero;"/>
        <path d="M177.17,62.962C177.17,62.605 177.157,62.288 177.143,61.971L177.905,61.971L177.952,62.348L177.966,62.348C178.134,62.092 178.417,61.917 178.761,61.917C179.388,61.917 179.638,62.416 179.638,63.151L179.638,65.268L178.754,65.268L178.754,63.205C178.754,62.928 178.687,62.659 178.431,62.659C178.283,62.659 178.161,62.76 178.1,62.955C178.074,63.023 178.053,63.13 178.053,63.259L178.053,65.268L177.17,65.268L177.17,62.962Z" style="fill-rule:nonzero;"/>
        <path d="M181.296,61.115L181.296,61.971L181.943,61.971L181.943,62.598L181.296,62.598L181.296,64.102C181.296,64.486 181.458,64.581 181.627,64.581C181.714,64.581 181.782,64.574 181.862,64.561L181.869,65.248C181.748,65.282 181.559,65.309 181.33,65.309C181.074,65.309 180.851,65.248 180.689,65.1C180.514,64.925 180.413,64.675 180.413,64.156L180.413,62.598L180.022,62.598L180.022,61.971L180.413,61.971L180.413,61.391L181.296,61.115Z" style="fill-rule:nonzero;"/>
        <path d="M178.508,26.109L177.846,26.109L177.846,25.87L179.458,25.87L179.458,26.109L178.792,26.109L178.792,28.047L178.508,28.047L178.508,26.109Z" style="fill-rule:nonzero;"/>
        <path d="M181.535,27.091C181.519,26.787 181.5,26.419 181.5,26.151L181.493,26.151C181.416,26.403 181.328,26.677 181.219,26.978L180.834,28.034L180.621,28.034L180.265,26.997C180.162,26.687 180.078,26.409 180.017,26.151L180.01,26.151C180.004,26.422 179.987,26.784 179.968,27.114L179.91,28.047L179.642,28.047L179.794,25.87L180.152,25.87L180.524,26.923C180.614,27.191 180.685,27.43 180.743,27.656L180.75,27.656C180.808,27.437 180.886,27.198 180.983,26.923L181.37,25.87L181.729,25.87L181.865,28.047L181.587,28.047L181.535,27.091Z" style="fill-rule:nonzero;"/>
    </g>
</svg>
