<?xml version="1.0" encoding="UTF-8" standalone="no"?>
<!DOCTYPE svg PUBLIC "-//W3C//DTD SVG 1.1//EN" "http://www.w3.org/Graphics/SVG/1.1/DTD/svg11.dtd">
<svg width="100%" height="100%" viewBox="0 0 222 139" version="1.1" xmlns="http://www.w3.org/2000/svg" xmlns:xlink="http://www.w3.org/1999/xlink" xml:space="preserve" style="fill-rule:evenodd;clip-rule:evenodd;stroke-linejoin:round;stroke-miterlimit:1.41421;">
    <g transform="matrix(1,0,0,1,-0.413412,-0.37016)">
        <g transform="matrix(1,0,0,1,-608.994,-187.641)">
            <path d="M806.623,206.298C804.502,212.178 802.49,217.756 800.463,223.377L812.787,223.377C810.744,217.717 808.74,212.163 806.623,206.298M754.054,217.331C758.756,217.331 763.371,217.551 767.955,217.269C772.544,216.986 775.586,212.33 774.461,207.891C773.623,204.587 770.77,202.496 766.986,202.472C762.944,202.447 758.901,202.465 754.859,202.47C754.592,202.47 754.324,202.523 754.054,202.551L754.054,217.331ZM754.034,225.692L754.034,246.704C752.771,246.704 751.578,246.704 750.384,246.704C748.893,246.705 747.402,246.686 745.912,246.716C745.321,246.727 745.043,246.532 745.109,245.923C745.128,245.748 745.112,245.569 745.112,245.392C745.111,228.674 745.111,211.956 745.111,195.238L745.111,194.043C745.537,194.019 745.909,193.98 746.281,193.98C752.954,193.976 759.627,193.995 766.3,193.972C771.257,193.955 775.697,195.278 779.198,198.953C785.08,205.128 785.099,214.676 779.292,220.925C779.124,221.106 778.951,221.283 778.719,221.525C782.144,223.524 782.915,226.794 782.98,230.364C783.031,233.131 782.918,235.903 783.025,238.668C783.076,239.973 783.474,241.264 783.714,242.561C783.811,242.553 783.909,242.544 784.006,242.536C785.49,238.523 786.979,234.512 788.456,230.497C792.814,218.642 797.172,206.788 801.508,194.926C801.765,194.224 802.091,193.94 802.874,193.957C805.429,194.012 807.986,194.004 810.54,193.961C811.25,193.949 811.593,194.142 811.846,194.841C818,211.831 824.18,228.811 830.353,245.794C830.437,246.022 830.493,246.261 830.592,246.594C830.278,246.635 830.017,246.699 829.755,246.7C827.235,246.708 824.714,246.683 822.195,246.719C821.526,246.729 821.195,246.534 820.962,245.88C819.396,241.484 817.767,237.11 816.209,232.711C815.935,231.935 815.623,231.611 814.732,231.619C809.019,231.669 803.307,231.645 797.526,231.645C796.226,235.217 794.933,238.768 793.642,242.32C793.194,243.551 792.795,244.803 792.276,246.002C792.139,246.318 791.639,246.672 791.302,246.675C786.441,246.718 781.579,246.721 776.717,246.673C776.336,246.669 775.808,246.301 775.606,245.953C774.376,243.826 774.211,241.446 774.168,239.062C774.128,236.862 774.071,234.657 774.178,232.462C774.392,228.112 771.785,225.928 767.908,225.743C763.343,225.526 758.759,225.692 754.034,225.692" style="fill:rgb(0,173,242);fill-rule:nonzero;"/>
        </g>
        <g transform="matrix(1,0,0,1,-608.994,-187.641)">
            <path d="M642.048,260.603L642.048,253.358C642.261,253.327 642.429,253.28 642.597,253.28C648.307,253.304 654.036,253.045 659.723,253.428C667.482,253.951 673.455,257.661 676.973,264.782C678.474,267.819 678.471,271.158 678.463,274.472C678.435,285.049 678.332,295.627 678.459,306.203C678.54,312.956 684.375,318.664 691.098,318.956C698.132,319.261 704.192,314.214 705.067,307.308C705.16,306.571 705.213,305.824 705.213,305.082C705.221,290.778 705.219,276.473 705.219,262.169C705.219,260.545 705.222,260.531 703.581,260.295C690.676,258.435 682.808,250.867 679.096,238.636C678.127,235.441 677.566,232.16 677.532,228.715L684.731,228.715C684.959,230.358 685.108,232.044 685.438,233.694C686.688,239.937 689.318,245.394 694.645,249.218C698.43,251.934 702.753,253.043 707.338,253.239C712.459,253.457 717.397,252.728 721.868,250.023C727.289,246.745 730.277,241.712 731.824,235.746C732.416,233.462 732.684,231.095 733.114,228.689L740.173,228.689C740.234,231.55 739.754,234.294 739.081,237.005C737.417,243.707 734.344,249.59 728.953,254.086C724.508,257.793 719.307,259.696 713.621,260.333C712.67,260.439 712.478,260.735 712.48,261.618C712.506,276.207 712.487,290.795 712.504,305.383C712.513,313.905 707.6,321.457 699.893,324.681C692.079,327.949 683.166,326.26 677.163,320.248C673.09,316.169 671.085,311.171 671.082,305.394C671.076,295.562 671.102,285.73 671.061,275.898C671.054,274.027 670.995,272.118 670.626,270.293C669.525,264.842 665.794,261.529 660.141,260.813C658.88,260.654 657.597,260.618 656.323,260.612C651.604,260.59 646.884,260.603 642.048,260.603" style="fill:white;fill-rule:nonzero;"/>
        </g>
        <g transform="matrix(1,0,0,1,-608.994,-187.641)">
            <path d="M673.248,193.977L673.248,246.644L664.511,246.644L664.511,215.687C664.436,215.673 664.361,215.658 664.286,215.643C663.749,217.08 663.206,218.515 662.676,219.954C659.511,228.553 656.341,237.151 653.199,245.759C652.944,246.458 652.629,246.756 651.844,246.725C650.144,246.657 648.436,246.654 646.735,246.725C645.893,246.76 645.499,246.504 645.2,245.697C641.601,236.011 637.961,226.341 634.332,216.666C634.185,216.274 634.036,215.882 633.706,215.508L633.706,243.321C630.895,241.416 628.054,240.247 624.814,240.081L624.814,194.032C625.131,194.014 625.47,193.98 625.809,193.979C628.364,193.975 630.921,194.013 633.475,193.956C634.277,193.939 634.659,194.177 634.941,194.938C639.112,206.222 643.314,217.496 647.508,228.771C647.924,229.889 648.342,231.005 648.847,232.355C649.956,229.456 650.976,226.799 651.99,224.141C655.7,214.42 659.414,204.702 663.104,194.974C663.377,194.252 663.717,193.937 664.547,193.954C667.415,194.013 670.284,193.977 673.248,193.977" style="fill:rgb(0,173,242);fill-rule:nonzero;"/>
        </g>
        <g transform="matrix(1,0,0,1,-608.994,-187.641)">
            <path d="M635.005,256.941C634.999,250.986 630.198,246.186 624.255,246.192C618.346,246.198 613.457,251.075 613.465,256.955C613.474,262.909 618.335,267.684 624.377,267.674C630.261,267.664 635.011,262.867 635.005,256.941M609.408,256.943C609.41,248.724 616.107,242.05 624.327,242.077C632.468,242.104 639.175,248.831 639.16,256.956C639.144,265.095 632.451,271.802 624.316,271.831C616.114,271.859 609.406,265.16 609.408,256.943" style="fill:white;fill-rule:nonzero;"/>
        </g>
        <g transform="matrix(1,0,0,1,-608.994,-187.641)">
            <path d="M740.139,225.692L732.907,225.692L732.907,224.399C732.907,218.3 732.94,212.201 732.881,206.102C732.868,204.774 732.655,203.414 732.306,202.13C731.67,199.794 730.77,198.998 728.46,198.323L728.46,191.065C729.169,191.138 729.795,191.139 730.391,191.274C735.515,192.434 739.133,196.595 739.933,202.254C740.087,203.338 740.204,204.439 740.209,205.532C740.239,212.092 740.232,218.652 740.233,225.211C740.233,225.345 740.182,225.478 740.139,225.692" style="fill:white;fill-rule:nonzero;"/>
        </g>
        <g transform="matrix(1,0,0,1,-608.994,-187.641)">
            <path d="M689.272,191.18L689.272,198.322C686.265,198.917 685.41,201.266 685.014,203.911C684.852,204.993 684.822,206.101 684.819,207.198C684.801,212.909 684.811,218.621 684.811,224.333L684.811,225.666L677.585,225.666C677.566,225.281 677.534,224.936 677.534,224.59C677.531,218.205 677.499,211.819 677.543,205.433C677.574,201.11 678.672,197.159 681.943,194.07C683.925,192.199 686.972,190.97 689.272,191.18" style="fill:white;fill-rule:nonzero;"/>
        </g>
        <g transform="matrix(1,0,0,1,-608.994,-187.641)">
            <path d="M714.834,194.611C714.834,193.192 714.819,191.774 714.838,190.355C714.862,188.608 716.175,187.642 717.855,188.158C720.088,188.843 722.311,189.559 724.531,190.285C725.828,190.71 726.292,191.366 726.307,192.715C726.319,193.814 726.312,194.913 726.31,196.013C726.307,197.081 725.833,197.835 724.828,198.243C722.564,199.163 720.315,200.115 718.04,201.003C716.24,201.705 714.849,200.708 714.836,198.76C714.828,197.377 714.834,195.994 714.834,194.611" style="fill:white;fill-rule:nonzero;"/>
        </g>
        <g transform="matrix(1,0,0,1,-608.994,-187.641)">
            <path d="M702.911,194.699C702.911,196.118 702.939,197.537 702.905,198.955C702.863,200.688 701.447,201.675 699.818,201.049C697.472,200.149 695.156,199.168 692.833,198.206C691.925,197.83 691.455,197.123 691.448,196.135C691.439,194.893 691.426,193.651 691.453,192.41C691.476,191.376 692.017,190.662 692.994,190.344C695.315,189.588 697.641,188.842 699.978,188.136C701.555,187.66 702.855,188.596 702.901,190.23C702.943,191.719 702.91,193.209 702.911,194.699" style="fill:white;fill-rule:nonzero;"/>
        </g>
        <g transform="matrix(1,0,0,1,-608.994,-187.641)">
            <path d="M633.331,256.971C633.329,261.999 629.305,266.056 624.297,266.077C619.289,266.098 615.148,261.952 615.16,256.928C615.171,251.936 619.233,247.865 624.234,247.832C629.275,247.8 633.333,251.876 633.331,256.971" style="fill:white;fill-rule:nonzero;"/>
        </g>
        <g transform="matrix(1,0,0,1,-608.994,-187.641)">
            <path d="M749.743,257.783C749.698,257.064 749.653,256.086 749.664,255.277L749.642,255.277C749.507,256.086 749.305,257.019 749.159,257.603L748.495,260.312L747.462,260.312L746.832,257.648C746.686,257.041 746.484,256.097 746.361,255.277L746.338,255.277C746.316,256.097 746.26,257.053 746.226,257.805L746.091,260.435L744.832,260.435L745.371,252.861L746.933,252.861L747.54,255.603C747.743,256.558 747.934,257.401 748.069,258.255L748.102,258.255C748.215,257.412 748.383,256.558 748.575,255.603L749.181,252.861L750.732,252.861L751.193,260.435L749.878,260.435L749.743,257.783Z" style="fill:white;fill-rule:nonzero;"/>
        </g>
        <g transform="matrix(1,0,0,1,-608.994,-187.641)">
            <path d="M753.249,254.94L753.789,257.805C753.856,258.131 753.901,258.424 753.946,258.727L753.968,258.727C754.013,258.446 754.058,258.131 754.103,257.828L754.553,254.94L756.002,254.94L754.878,259.188C754.609,260.222 754.249,261.289 753.654,261.986C753.182,262.537 752.631,262.795 752.406,262.852L751.957,261.582C752.204,261.492 752.462,261.335 752.687,261.132C752.89,260.941 753.047,260.705 753.148,260.469C753.193,260.379 753.227,260.312 753.227,260.233C753.227,260.166 753.204,260.098 753.182,260.031L751.665,254.94L753.249,254.94Z" style="fill:white;fill-rule:nonzero;"/>
        </g>
        <g transform="matrix(1,0,0,1,-608.994,-187.641)">
            <path d="M759.924,256.277L760.194,256.277C760.834,256.277 761.194,255.76 761.194,255.097C761.194,254.445 760.935,253.996 760.283,253.973C760.149,253.973 760.003,253.985 759.924,254.018L759.924,256.277ZM758.452,252.973C758.912,252.883 759.497,252.827 760.059,252.827C760.868,252.827 761.598,252.951 762.082,253.389C762.542,253.805 762.688,254.31 762.688,254.962C762.688,255.771 762.284,256.502 761.52,256.85L761.52,256.873C762.037,257.086 762.295,257.558 762.441,258.379C762.587,259.221 762.79,260.154 762.924,260.435L761.385,260.435C761.283,260.222 761.115,259.457 761.003,258.615C760.868,257.682 760.632,257.412 760.149,257.412L759.924,257.412L759.924,260.435L758.452,260.435L758.452,252.973Z" style="fill:white;fill-rule:nonzero;"/>
        </g>
        <g transform="matrix(1,0,0,1,-608.994,-187.641)">
            <path d="M766.105,257.176C766.105,256.468 765.925,255.917 765.487,255.917C765.015,255.917 764.813,256.625 764.801,257.176L766.105,257.176ZM764.801,258.21C764.813,259.064 765.318,259.379 765.959,259.379C766.375,259.379 766.734,259.289 767.004,259.199L767.195,260.255C766.824,260.401 766.251,260.502 765.7,260.502C764.194,260.502 763.374,259.513 763.374,257.794C763.374,255.94 764.34,254.839 765.577,254.839C766.757,254.839 767.442,255.771 767.442,257.446C767.442,257.839 767.419,258.052 767.397,258.21L764.801,258.21Z" style="fill:white;fill-rule:nonzero;"/>
        </g>
        <g transform="matrix(1,0,0,1,-608.994,-187.641)">
            <path d="M768.228,259.109C768.441,259.244 768.846,259.401 769.217,259.401C769.599,259.401 769.812,259.233 769.812,258.907C769.812,258.626 769.655,258.446 769.172,258.165C768.284,257.659 768.06,257.086 768.06,256.58C768.06,255.592 768.768,254.839 769.869,254.839C770.33,254.839 770.689,254.951 770.981,255.097L770.723,256.176C770.509,256.052 770.251,255.951 769.958,255.951C769.577,255.951 769.408,256.176 769.408,256.423C769.408,256.659 769.532,256.805 770.048,257.109C770.857,257.569 771.161,258.142 771.161,258.772C771.161,259.896 770.352,260.503 769.217,260.503C768.756,260.503 768.217,260.379 767.969,260.188L768.228,259.109Z" style="fill:white;fill-rule:nonzero;"/>
        </g>
        <g transform="matrix(1,0,0,1,-608.994,-187.641)">
            <path d="M773.184,257.671C773.184,258.615 773.33,259.402 773.858,259.402C774.342,259.402 774.465,258.48 774.465,257.671C774.465,256.918 774.342,255.963 773.836,255.963C773.296,255.963 773.184,256.918 773.184,257.671M775.926,257.671C775.926,259.963 774.656,260.525 773.825,260.525C772.51,260.525 771.723,259.492 771.723,257.705C771.723,255.727 772.757,254.839 773.847,254.839C775.151,254.839 775.926,255.929 775.926,257.671" style="fill:white;fill-rule:nonzero;"/>
        </g>
        <g transform="matrix(1,0,0,1,-608.994,-187.641)">
            <path d="M780.78,258.761C780.78,259.345 780.802,259.918 780.825,260.436L779.555,260.436L779.476,259.851L779.454,259.851C779.196,260.222 778.746,260.525 778.173,260.525C777.128,260.525 776.712,259.75 776.712,258.267L776.712,254.94L778.184,254.94L778.184,258.109C778.184,258.828 778.33,259.289 778.735,259.289C778.993,259.289 779.151,259.098 779.218,258.918C779.274,258.806 779.308,258.637 779.308,258.446L779.308,254.94L780.78,254.94L780.78,258.761Z" style="fill:white;fill-rule:nonzero;"/>
        </g>
        <g transform="matrix(1,0,0,1,-608.994,-187.641)">
            <path d="M781.836,256.592C781.836,256.053 781.814,255.457 781.791,254.94L783.061,254.94L783.14,255.738L783.185,255.738C783.42,255.154 783.87,254.839 784.263,254.839C784.421,254.839 784.5,254.85 784.578,254.873L784.578,256.322C784.488,256.311 784.387,256.311 784.263,256.311C783.949,256.311 783.533,256.525 783.376,257.086C783.331,257.21 783.308,257.412 783.308,257.637L783.308,260.436L781.836,260.436L781.836,256.592Z" style="fill:white;fill-rule:nonzero;"/>
        </g>
        <g transform="matrix(1,0,0,1,-608.994,-187.641)">
            <path d="M788.141,260.346C787.995,260.413 787.624,260.503 787.208,260.503C785.815,260.503 784.905,259.536 784.905,257.75C784.905,256.053 785.905,254.873 787.422,254.873C787.77,254.873 788.085,254.952 788.231,255.019L788.04,256.177C787.916,256.132 787.737,256.075 787.489,256.075C786.781,256.075 786.366,256.75 786.366,257.705C786.366,258.694 786.781,259.301 787.467,259.301C787.681,259.301 787.86,259.267 788.017,259.188L788.141,260.346Z" style="fill:white;fill-rule:nonzero;"/>
        </g>
        <g transform="matrix(1,0,0,1,-608.994,-187.641)">
            <path d="M791.265,257.176C791.265,256.468 791.085,255.917 790.647,255.917C790.175,255.917 789.973,256.625 789.961,257.176L791.265,257.176ZM789.961,258.21C789.973,259.064 790.478,259.379 791.119,259.379C791.535,259.379 791.894,259.289 792.164,259.199L792.355,260.255C791.984,260.401 791.411,260.502 790.861,260.502C789.354,260.502 788.534,259.513 788.534,257.794C788.534,255.94 789.501,254.839 790.737,254.839C791.917,254.839 792.602,255.771 792.602,257.446C792.602,257.839 792.58,258.052 792.557,258.21L789.961,258.21Z" style="fill:white;fill-rule:nonzero;"/>
        </g>
        <g transform="matrix(1,0,0,1,-608.994,-187.641)">
            <path d="M797.782,257.558L797.535,255.974C797.456,255.513 797.355,254.748 797.288,254.254L797.254,254.254C797.176,254.76 797.063,255.535 796.984,255.974L796.703,257.558L797.782,257.558ZM796.557,258.704L796.22,260.435L794.793,260.435L796.434,252.86L798.198,252.86L799.67,260.435L798.243,260.435L797.917,258.704L796.557,258.704Z" style="fill:white;fill-rule:nonzero;"/>
        </g>
        <g transform="matrix(1,0,0,1,-608.994,-187.641)">
            <path d="M800.412,259.109C800.626,259.244 801.03,259.401 801.401,259.401C801.783,259.401 801.996,259.233 801.996,258.907C801.996,258.626 801.839,258.446 801.356,258.165C800.468,257.659 800.244,257.086 800.244,256.58C800.244,255.592 800.952,254.839 802.053,254.839C802.514,254.839 802.873,254.951 803.165,255.097L802.907,256.176C802.693,256.052 802.435,255.951 802.143,255.951C801.761,255.951 801.592,256.176 801.592,256.423C801.592,256.659 801.716,256.805 802.233,257.109C803.042,257.569 803.345,258.142 803.345,258.772C803.345,259.896 802.536,260.503 801.401,260.503C800.94,260.503 800.401,260.379 800.154,260.188L800.412,259.109Z" style="fill:white;fill-rule:nonzero;"/>
        </g>
        <g transform="matrix(1,0,0,1,-608.994,-187.641)">
            <path d="M804.053,259.109C804.266,259.244 804.671,259.401 805.042,259.401C805.424,259.401 805.637,259.233 805.637,258.907C805.637,258.626 805.48,258.446 804.997,258.165C804.109,257.659 803.884,257.086 803.884,256.58C803.884,255.592 804.592,254.839 805.694,254.839C806.154,254.839 806.514,254.951 806.806,255.097L806.548,256.176C806.334,256.052 806.075,255.951 805.783,255.951C805.401,255.951 805.233,256.176 805.233,256.423C805.233,256.659 805.356,256.805 805.873,257.109C806.682,257.569 806.986,258.142 806.986,258.772C806.986,259.896 806.177,260.503 805.042,260.503C804.581,260.503 804.042,260.379 803.794,260.188L804.053,259.109Z" style="fill:white;fill-rule:nonzero;"/>
        </g>
        <g transform="matrix(1,0,0,1,-608.994,-187.641)">
            <path d="M807.738,254.94L809.21,254.94L809.21,260.435L807.738,260.435L807.738,254.94ZM809.211,253.49C809.222,253.962 808.885,254.288 808.435,254.288C808.031,254.288 807.693,253.962 807.705,253.49C807.693,252.996 808.053,252.681 808.458,252.681C808.885,252.681 809.211,252.996 809.211,253.49" style="fill:white;fill-rule:nonzero;"/>
        </g>
        <g transform="matrix(1,0,0,1,-608.994,-187.641)">
            <path d="M810.199,259.109C810.412,259.244 810.817,259.401 811.188,259.401C811.57,259.401 811.783,259.233 811.783,258.907C811.783,258.626 811.626,258.446 811.143,258.165C810.255,257.659 810.031,257.086 810.031,256.58C810.031,255.592 810.739,254.839 811.84,254.839C812.301,254.839 812.66,254.951 812.952,255.097L812.694,256.176C812.48,256.052 812.222,255.951 811.929,255.951C811.548,255.951 811.379,256.176 811.379,256.423C811.379,256.659 811.503,256.805 812.02,257.109C812.829,257.569 813.132,258.142 813.132,258.772C813.132,259.896 812.323,260.503 811.188,260.503C810.727,260.503 810.188,260.379 809.941,260.188L810.199,259.109Z" style="fill:white;fill-rule:nonzero;"/>
        </g>
        <g transform="matrix(1,0,0,1,-608.994,-187.641)">
            <path d="M815.616,253.513L815.616,254.94L816.695,254.94L816.695,255.985L815.616,255.985L815.616,258.491C815.616,259.132 815.886,259.289 816.167,259.289C816.313,259.289 816.425,259.278 816.56,259.255L816.571,260.402C816.369,260.458 816.054,260.503 815.672,260.503C815.245,260.503 814.874,260.402 814.605,260.155C814.312,259.862 814.144,259.447 814.144,258.581L814.144,255.985L813.492,255.985L813.492,254.94L814.144,254.94L814.144,253.974L815.616,253.513Z" style="fill:white;fill-rule:nonzero;"/>
        </g>
        <g transform="matrix(1,0,0,1,-608.994,-187.641)">
            <path d="M819.639,257.761C819.156,257.772 818.47,257.941 818.47,258.705C818.47,259.244 818.774,259.447 818.998,259.447C819.245,259.447 819.504,259.301 819.605,258.975C819.628,258.896 819.639,258.817 819.639,258.716L819.639,257.761ZM821.089,259.177C821.089,259.615 821.111,260.065 821.167,260.436L819.852,260.436L819.774,259.896L819.74,259.896C819.448,260.312 819.01,260.526 818.526,260.526C817.695,260.526 817.076,259.829 817.076,258.862C817.076,257.413 818.347,256.828 819.594,256.817L819.594,256.693C819.594,256.255 819.347,255.94 818.819,255.94C818.38,255.94 818.032,256.064 817.695,256.266L817.425,255.266C817.74,255.098 818.369,254.851 819.144,254.851C820.819,254.851 821.089,256.019 821.089,257.143L821.089,259.177Z" style="fill:white;fill-rule:nonzero;"/>
        </g>
        <g transform="matrix(1,0,0,1,-608.994,-187.641)">
            <path d="M822.122,256.592C822.122,255.997 822.1,255.468 822.077,254.94L823.347,254.94L823.426,255.57L823.448,255.57C823.729,255.143 824.201,254.85 824.774,254.85C825.819,254.85 826.235,255.682 826.235,256.907L826.235,260.436L824.763,260.436L824.763,256.997C824.763,256.536 824.65,256.086 824.224,256.086C823.976,256.086 823.774,256.255 823.673,256.581C823.628,256.693 823.594,256.873 823.594,257.086L823.594,260.436L822.122,260.436L822.122,256.592Z" style="fill:white;fill-rule:nonzero;"/>
        </g>
        <g transform="matrix(1,0,0,1,-608.994,-187.641)">
            <path d="M829,253.513L829,254.94L830.079,254.94L830.079,255.985L829,255.985L829,258.491C829,259.132 829.27,259.289 829.55,259.289C829.697,259.289 829.809,259.278 829.944,259.255L829.955,260.402C829.753,260.458 829.438,260.503 829.056,260.503C828.629,260.503 828.258,260.402 827.988,260.155C827.696,259.862 827.528,259.447 827.528,258.581L827.528,255.985L826.876,255.985L826.876,254.94L827.528,254.94L827.528,253.974L829,253.513Z" style="fill:white;fill-rule:nonzero;"/>
        </g>
        <g transform="matrix(1,0,0,1,-608.994,-187.641)">
            <path d="M824.353,195.169L823.249,195.169L823.249,194.771L825.936,194.771L825.936,195.169L824.827,195.169L824.827,198.4L824.353,198.4L824.353,195.169Z" style="fill:white;fill-rule:nonzero;"/>
        </g>
        <g transform="matrix(1,0,0,1,-608.994,-187.641)">
            <path d="M829.397,196.806C829.37,196.3 829.338,195.686 829.338,195.239L829.327,195.239C829.199,195.659 829.053,196.117 828.87,196.617L828.229,198.378L827.873,198.378L827.281,196.65C827.108,196.133 826.969,195.67 826.867,195.239L826.855,195.239C826.845,195.691 826.819,196.294 826.786,196.844L826.689,198.4L826.242,198.4L826.495,194.77L827.093,194.77L827.713,196.526C827.862,196.973 827.981,197.371 828.079,197.748L828.089,197.748C828.186,197.382 828.315,196.983 828.478,196.526L829.123,194.77L829.72,194.77L829.946,198.4L829.483,198.4L829.397,196.806Z" style="fill:white;fill-rule:nonzero;"/>
        </g>
    </g>
</svg>
